<?xml version="1.0" standalone="no"?>
<!DOCTYPE svg PUBLIC "-//W3C//DTD SVG 20010904//EN"
 "http://www.w3.org/TR/2001/REC-SVG-20010904/DTD/svg10.dtd">
<svg version="1.0" xmlns="http://www.w3.org/2000/svg"
 width="512.000000pt" height="512.000000pt" viewBox="0 0 512.000000 512.000000"
 preserveAspectRatio="xMidYMid meet">
<metadata>
Created by potrace 1.14, written by Peter Selinger 2001-2017
</metadata>
<g transform="translate(0.000000,512.000000) scale(0.100000,-0.100000)"
fill="#000000" stroke="none">
<path d="M1900 4949 c-99 -10 -169 -19 -200 -24 -14 -2 -45 -7 -70 -10 -63 -9
-266 -52 -385 -81 -278 -70 -560 -183 -725 -291 -90 -59 -211 -188 -248 -265
-70 -144 -75 -289 -14 -402 31 -56 164 -192 275 -281 81 -65 78 -59 92 -190 3
-27 8 -61 11 -75 7 -40 13 -178 19 -445 3 -137 8 -266 10 -285 2 -19 6 -82 10
-140 3 -58 8 -119 10 -135 2 -17 6 -70 10 -120 11 -140 21 -243 30 -295 3 -14
7 -52 10 -85 4 -33 8 -67 11 -75 2 -8 6 -35 9 -60 18 -146 66 -373 114 -539
17 -57 28 -107 26 -111 -3 -4 -31 -18 -62 -31 -235 -93 -454 -268 -535 -426
-57 -112 -71 -173 -72 -328 l-1 -90 2007 0 2006 0 25 23 c26 24 31 72 12 117
-4 11 -5 17 0 13 9 -9 56 14 74 36 22 26 22 87 1 123 l-19 32 35 20 c42 25 57
62 51 119 -5 46 -38 92 -66 92 -9 0 -3 8 15 19 30 18 52 59 49 91 -1 8 -3 26
-3 38 -2 30 -57 82 -86 82 -14 1 -9 5 16 14 59 21 88 45 104 83 33 78 -25 130
-159 142 -5 1 -6 4 -4 9 3 4 8 61 11 127 8 142 11 155 38 155 55 0 221 67 301
121 62 42 174 165 214 234 70 121 96 210 99 355 4 154 -11 225 -79 370 -23 49
-109 160 -158 204 -142 128 -325 195 -514 191 -136 -4 -206 -21 -327 -81 -63
-32 -163 -105 -200 -147 -16 -18 -17 -12 -13 109 3 71 7 199 10 284 2 85 7
166 10 180 2 13 7 42 10 65 10 67 15 99 21 126 3 18 37 53 105 109 127 105
221 207 255 275 32 68 41 182 19 267 -66 258 -312 449 -777 602 -173 57 -409
116 -573 142 -20 3 -46 7 -57 9 -10 2 -56 9 -101 15 -45 6 -95 14 -112 16 -53
9 -487 11 -565 3z m1784 -3241 c93 -92 191 -149 329 -192 15 -5 18 -13 14 -44
-29 -229 -31 -242 -46 -243 -9 0 -43 -2 -77 -4 -185 -8 -312 -63 -383 -167
l-24 -35 -39 16 c-21 9 -38 22 -38 28 0 7 11 52 25 100 47 161 105 447 120
598 l8 70 26 -34 c14 -19 53 -61 85 -93z"/>
</g>
</svg>
